<?xml version="1.0" standalone="no"?><!DOCTYPE svg PUBLIC "-//W3C//DTD SVG 1.1//EN" "http://www.w3.org/Graphics/SVG/1.1/DTD/svg11.dtd"><svg t="1533193262568" class="icon" style="" viewBox="0 0 1024 1024" version="1.1" xmlns="http://www.w3.org/2000/svg" p-id="2982" xmlns:xlink="http://www.w3.org/1999/xlink" width="18" height="18"><defs><style type="text/css"></style></defs><path d="M964.608 933.888 742.4 712.704c64.512-68.608 102.4-161.792 102.4-264.192C844.8 230.4 665.6 51.2 448.512 51.2S51.2 230.4 51.2 448.512s179.2 396.288 397.312 396.288c102.4 0 196.608-38.912 264.192-102.4l222.208 222.208c4.096 4.096 8.192 4.096 13.312 4.096 13.312 0 21.504-8.192 21.504-21.504C968.704 943.104 964.608 939.008 964.608 933.888zM448.512 801.792c-196.608 0-354.304-157.696-354.304-354.304S251.904 94.208 448.512 94.208s354.304 157.696 354.304 354.304S644.096 801.792 448.512 801.792z" p-id="2983" fill="#ffffff"></path></svg>