<?xml version="1.0" standalone="no"?><!DOCTYPE svg PUBLIC "-//W3C//DTD SVG 1.1//EN" "http://www.w3.org/Graphics/SVG/1.1/DTD/svg11.dtd"><svg t="1533304502484" class="icon" style="" viewBox="0 0 1024 1024" version="1.1" xmlns="http://www.w3.org/2000/svg" p-id="7583" xmlns:xlink="http://www.w3.org/1999/xlink" width="10" height="10"><defs><style type="text/css"></style></defs><path d="M895.469672 127.981836 127.941927 127.981836c-35.32453 0-63.960731 28.636201-63.960731 63.960731l0 639.606283c0 35.32453 28.636201 63.960731 63.960731 63.960731l767.527744 0c35.32453 0 63.960731-28.636201 63.960731-63.960731L959.430402 191.942567C959.430402 156.618037 930.794202 127.981836 895.469672 127.981836zM895.469672 806.473755c0 13.848403-11.226692 25.075095-25.075095 25.075095L153.017022 831.54885c-13.848403 0-25.075095-11.226692-25.075095-25.075095L127.941927 217.017662c0-13.848403 11.226692-25.075095 25.075095-25.075095l717.377554 0c13.848403 0 25.075095 11.226692 25.075095 25.075095L895.469672 806.473755z" p-id="7584" fill="#1296db"></path><path d="M575.667042 614.591563c0 13.848403-11.226692 25.075095-25.075095 25.075095L216.977753 639.666658c-13.848403 0-25.075095-11.226692-25.075095-25.075095l0-13.81054c0-13.848403 11.226692-25.075095 25.075095-25.075095l333.614194 0c13.848403 0 25.075095 11.226692 25.075095 25.075095L575.667042 614.591563z" p-id="7585" fill="#1296db"></path><path d="M575.667042 742.513024c0 13.848403-11.226692 25.075095-25.075095 25.075095L216.977753 767.588119c-13.848403 0-25.075095-11.226692-25.075095-25.075095l0-13.81054c0-13.848403 11.226692-25.075095 25.075095-25.075095l333.614194 0c13.848403 0 25.075095 11.226692 25.075095 25.075095L575.667042 742.513024z" p-id="7586" fill="#1296db"></path><path d="M806.433846 255.903298 600.742137 255.903298c-13.848403 0-25.075095 11.226692-25.075095 25.075095l0 205.692732c0 13.848403 11.226692 25.075095 25.075095 25.075095l205.692732 0c13.848403 0 25.075095-11.226692 25.075095-25.075095L831.509964 280.977369C831.508941 267.128967 820.282249 255.903298 806.433846 255.903298zM767.54821 445.222107c0 1.415232-1.147126 2.562359-2.562359 2.562359l-122.796744 0c-1.415232 0-2.562359-1.147126-2.562359-2.562359l0-122.796744c0-1.415232 1.147126-2.562359 2.562359-2.562359l122.796744 0c1.415232 0 2.562359 1.147126 2.562359 2.562359L767.54821 445.222107z" p-id="7587" fill="#1296db"></path></svg>