<?xml version="1.0" standalone="no"?><!DOCTYPE svg PUBLIC "-//W3C//DTD SVG 1.1//EN" "http://www.w3.org/Graphics/SVG/1.1/DTD/svg11.dtd"><svg t="1533301689773" class="icon" style="" viewBox="0 0 1024 1024" version="1.1" xmlns="http://www.w3.org/2000/svg" p-id="4613" xmlns:xlink="http://www.w3.org/1999/xlink" width="10" height="10"><defs><style type="text/css"></style></defs><path d="M837.818182 1024H186.181818a186.181818 186.181818 0 0 1-186.181818-186.181818v-232.727273h93.090909v232.727273a93.090909 93.090909 0 0 0 93.090909 93.090909h651.636364a93.090909 93.090909 0 0 0 93.090909-93.090909v-232.727273h93.090909v232.727273a186.181818 186.181818 0 0 1-186.181818 186.181818z m139.636363-512H46.545455a46.545455 46.545455 0 0 1 0-93.090909h930.90909a46.545455 46.545455 0 0 1 0 93.090909z m-46.545454-325.818182a93.090909 93.090909 0 0 0-93.090909-93.090909H186.181818a93.090909 93.090909 0 0 0-93.090909 93.090909v139.636364H0V186.181818a186.181818 186.181818 0 0 1 186.181818-186.181818h651.636364a186.181818 186.181818 0 0 1 186.181818 186.181818v139.636364h-93.090909V186.181818z" p-id="4614" fill="#ffffff"></path></svg>