<?xml version="1.0" standalone="no"?><!DOCTYPE svg PUBLIC "-//W3C//DTD SVG 1.1//EN" "http://www.w3.org/Graphics/SVG/1.1/DTD/svg11.dtd"><svg t="1533273852685" class="icon" style="" viewBox="0 0 1024 1024" version="1.1" xmlns="http://www.w3.org/2000/svg" p-id="8393" data-spm-anchor-id="a313x.7781069.0.i29" xmlns:xlink="http://www.w3.org/1999/xlink" width="10" height="10"><defs><style type="text/css"></style></defs><path d="M737.860267 228.9152l-6.0928 2.048-6.126933 2.030933-6.0928 2.048-4.078933 2.048-6.109867 2.030933-6.0928 2.048-4.096 2.048-2.030933 2.030933-6.0928 2.048-2.048 2.030933-2.030933 2.048L682.837333 255.488l-2.030933 2.048-2.030933 4.078933-2.030933 2.048-2.048 4.078933-2.030933 6.126933-2.048 4.078933 0 20.445867 2.048 6.126933 2.030933 6.109867 2.048 2.048 2.030933 4.078933 4.061867 0 0 4.096 4.078933 4.078933 2.030933 2.048 2.048 2.030933 6.0928 2.048 2.030933 2.030933 6.126933 2.048 24.4736 0 6.0928-2.048 4.061867-2.030933 6.126933-2.048 6.0928-2.030933 4.078933-2.048 6.109867-2.048 6.109867-2.030933 6.109867-2.048 4.061867-2.048 6.126933-2.030933 6.0928-2.048 4.078933-2.048 6.109867-2.030933 6.0928-2.048 4.078933-2.030933 12.2368-4.096 4.078933-2.030933 6.0928-2.048 2.048-2.048 4.078933-2.030933 4.061867-4.096 2.030933-2.030933 2.030933-2.048 2.048-2.030933 2.030933-4.096 2.048-2.030933 4.061867-12.270933 0-20.4288-2.030933-8.174933-2.030933-4.078933-2.048-4.096-4.078933-4.078933-2.030933-4.078933-2.030933-2.048-2.030933-2.030933-6.109867-2.048-2.048-2.048-4.061867-2.030933-4.061867-2.048-10.205867-2.048-2.030933 0-16.315733 2.048-6.109867 2.048-4.061867 2.030933-6.126933 2.048-6.0928 2.048-4.078933 2.030933-6.109867 2.048-6.0928 2.048-4.078933 2.030933-6.109867 2.048-6.109867 2.030933L737.860267 228.9152zM894.839467 472.149333l-6.126933 2.030933-6.0928 2.048-4.078933 2.030933-6.109867 2.048-6.0928 2.048-4.096 2.030933-6.0928 2.048-6.109867 2.048-4.078933 2.030933-6.0928 2.048-6.126933 2.048-4.061867 2.030933-12.2368 4.096-6.109867 2.030933-4.078933 2.048L801.0752 506.88l-6.109867 2.048-4.078933 2.048-2.030933 2.030933-4.061867 4.096-2.048 2.030933-4.078933 4.078933-2.030933 2.048-2.030933 4.078933-2.030933 2.048-2.048 6.126933-2.030933 8.174933 0 16.349867 2.030933 6.126933 2.048 6.126933 2.030933 4.096 2.030933 2.030933 2.030933 2.048 8.174933 8.174933 2.030933 2.048 6.109867 2.048 2.030933 2.030933 6.109867 2.048 10.205867 2.048 10.1888 0 6.109867-2.048 4.061867-2.048 6.126933-2.030933 6.0928-2.048 4.078933-2.048 6.109867-2.030933 6.0928-2.048 4.096-2.048 6.0928-2.030933 6.109867-2.048 4.078933-2.030933 6.0928-2.048 6.126933-2.048 4.061867-2.030933 12.2368-4.096 6.109867-2.030933 4.078933-2.048 6.0928-2.048 6.109867-2.030933 4.078933-4.078933 4.061867-2.048 2.030933-2.048 2.048-4.078933 4.078933-4.078933 2.030933-4.078933 2.030933-4.096 2.030933-4.078933 0-26.5728-2.030933-4.078933-2.030933-6.126933-2.030933-4.096-8.174933-8.174933-4.061867-4.096L933.546667 476.228267l-4.078933-2.048-4.061867-2.030933-8.157867-2.048L898.901333 470.101333 894.839467 472.149333zM847.940267 339.285333 841.8304 341.333333l-6.109867 2.048-4.078933 2.030933-6.0928 2.048-6.126933 2.030933-4.061867 2.048-6.109867 2.048-6.109867 2.030933-4.061867 2.048-6.126933 2.048-6.0928 2.030933-6.126933 2.048-4.061867 2.048-6.109867 2.030933-6.109867 2.048-4.061867 2.048-6.109867 2.030933-6.109867 2.048-4.061867 2.030933-2.048 2.048-4.078933 2.048-2.030933 2.030933-4.061867 4.096-4.078933 4.078933-2.048 4.078933-2.030933 2.048-2.030933 4.078933-2.030933 8.174933 0 20.4288 2.030933 6.126933 2.030933 4.078933 2.030933 2.048 2.048 4.078933 2.048 2.048 2.030933 4.078933 2.030933 2.048 2.030933 2.030933 4.061867 2.048 2.048 2.030933 4.078933 2.048 4.061867 2.048 6.109867 2.030933 20.3776 0 6.109867-2.030933 4.078933-2.048 6.0928-2.048 6.126933-2.030933 4.061867-2.048 6.109867-2.030933 6.109867-2.048 4.061867-2.048 6.126933-2.030933 6.0928-2.048 6.109867-2.048 4.078933-2.030933 6.0928-2.048 6.126933-2.048 4.061867-2.030933 6.109867-2.048 6.109867-2.030933 4.061867-2.048 6.126933-2.048 4.061867-2.030933 4.061867-2.048 0-4.078933 4.078933 0 2.048-2.048 2.030933-2.048 2.030933-4.078933 2.030933-2.030933 2.030933-4.096 4.096-8.174933 0-24.541867-2.048-6.126933-2.048-4.078933-2.030933-4.078933-2.030933-4.096-2.030933-2.030933-2.030933-2.048-4.078933-4.078933-4.078933-2.048-2.030933-2.030933L878.523733 341.333333l-2.030933-2.048-10.1888-2.030933-10.205867 0L847.940267 339.285333zM1004.9024 637.696l-2.030933-6.126933-2.048-4.078933-2.030933-4.078933-2.048-4.096-2.030933-2.030933-4.061867-4.096-4.078933-2.030933-2.048-2.048-4.061867-2.048-4.061867-2.030933-8.174933-2.048-22.408533 0-4.078933 2.048-6.0928 2.030933-6.126933 2.048-4.061867 2.048-6.109867 2.030933-6.109867 2.048-4.061867 2.048-6.126933 2.030933-6.0928 2.048-6.109867 2.048-4.078933 2.030933-6.0928 2.048-6.126933 2.030933-4.061867 2.048-6.109867 2.048-6.109867 2.030933-4.061867 2.048-6.126933 2.048-6.0928 2.030933-2.030933 2.048-2.048 2.048-4.078933 2.030933-2.030933 2.048-2.030933 2.030933-2.030933 4.096-4.078933 4.078933-2.048 6.126933-2.030933 4.078933-2.030933 8.174933 0 16.349867 2.030933 4.078933 2.030933 6.126933 2.048 4.078933 4.078933 4.078933 2.030933 4.096 2.030933 2.030933 4.078933 2.048 2.030933 2.048 2.048 2.030933 2.030933 2.048 6.0928 2.048 6.126933 2.030933 20.360533 0 6.126933-2.030933 6.0928-2.048 6.109867-2.048 4.078933-2.030933 6.0928-2.048 6.126933-2.048 4.061867-2.030933 12.2368-4.096 4.061867-2.030933 6.126933-2.048 6.0928-2.030933 4.078933-2.048 6.109867-2.048 6.109867-2.030933 6.109867-2.048 4.061867-2.048 6.109867-2.030933 4.078933-2.048 6.0928-2.048 2.048-2.030933 2.030933-2.048 2.048-2.030933 4.061867-4.096 2.030933-2.030933 2.048-4.096 2.030933-2.030933 2.048-4.078933 2.030933-6.126933L1006.933333 654.045867l0-6.126933L1004.9024 637.696zM181.4016 222.788267l2.048 6.126933 2.030933 6.126933 2.048 4.078933 2.048 6.126933 2.030933 6.126933 2.048 4.078933 2.048 6.126933 2.030933 6.126933 2.048 4.078933 2.030933 6.126933 2.048 6.126933 2.030933 6.126933 2.048 4.078933 2.048 6.126933 2.030933 6.126933 2.048 4.078933 2.030933 6.126933 2.048 6.126933 2.048 4.096 2.030933 6.109867 2.048 4.096 2.030933 0 4.078933-2.048 6.109867-2.048 6.109867-2.030933 4.078933-2.048 6.109867-2.030933 12.2368-4.096 2.030933-2.030933 2.048-8.174933 2.048-8.174933 2.030933-2.048 2.048-2.048 2.030933-2.030933 2.048-2.048 4.078933-2.048 6.109867-2.030933 4.078933-2.048 6.109867-2.048 6.109867-2.030933 4.078933-2.048 6.109867-2.030933 6.109867-2.048 4.078933-2.048 6.109867-2.030933 6.109867-2.048 4.078933-2.048 6.109867-2.030933 12.2368-4.096 4.078933-2.030933 6.109867-2.048 6.109867-2.030933 4.078933-2.048 6.109867-2.048 6.109867-2.030933 4.078933-2.048 6.109867-2.048 6.109867-2.030933 4.078933-2.048 6.109867-2.030933 12.2368-4.096 4.078933-2.030933 12.2368-4.096 4.078933-2.030933 12.2368-4.096 4.078933-2.030933 6.109867-2.048 6.109867-2.030933 4.078933-2.048 6.109867-2.048 6.109867-2.030933 4.078933-2.048 6.109867-2.048 6.126933-2.030933 6.0928-2.048 4.078933-2.048 6.109867-2.030933 6.109867-2.048 4.078933-2.030933 6.0928-2.048 6.109867-2.048 4.078933-2.030933 6.0928-2.048 6.126933-2.048 4.061867-2.030933 12.2368-4.096 4.061867-2.030933 6.126933-2.048 6.0928-2.030933 6.126933-2.048 4.061867-2.048 6.109867-2.030933 6.109867-2.048 4.061867-2.048 6.109867-2.030933 6.109867-2.048 4.061867-2.048L650.24 157.3888l6.0928-2.048 16.315733 0 2.030933 2.048 4.078933 2.030933 4.061867 4.096 2.030933 4.078933 2.048 4.078933 2.030933 6.126933 2.048 6.126933 2.030933 4.078933 4.061867 12.270933 2.030933 4.078933 2.048 6.126933 2.048 2.048 6.0928 0 6.109867-2.048 4.078933-2.030933 6.0928-2.048 6.126933-2.048 4.061867-2.030933 6.109867-2.048 4.078933-2.030933 0-4.096-2.030933-6.126933-2.048-6.126933-2.048-4.078933L735.829333 165.546667l-2.030933-4.078933-4.061867-12.270933-2.048-4.078933-2.048-6.126933-2.030933-6.126933-2.030933-4.078933-4.061867-12.270933-2.048-6.126933-2.030933-4.078933-2.048-6.126933-2.030933-6.126933L707.293867 89.941333l-4.061867-12.270933-2.048-4.078933-2.048-6.126933-2.030933-6.126933-2.030933-4.078933-4.061867-12.270933-2.048-4.078933-2.030933-6.126933-2.048-6.126933L682.837333 24.541867l-2.030933-2.048-2.030933-4.078933-2.030933-2.048-2.048-2.048-4.078933-2.030933-4.061867-4.096-2.030933-2.030933-6.126933-2.048L652.270933 2.048 642.065067 0l-2.030933 0-12.2368 2.048-6.0928 2.030933-4.078933 2.048L611.498667 8.174933l-6.109867 2.048-4.078933 2.048-6.0928 2.030933-6.126933 2.048-6.0928 2.048-4.078933 2.030933-12.2368 4.096-4.078933 2.030933-6.0928 2.048-6.109867 2.030933-4.078933 2.048-6.0928 2.048-6.126933 2.030933-4.061867 2.048-6.109867 2.048-6.109867 2.030933-4.061867 2.048-6.126933 2.048L501.418667 49.0496l-6.109867 2.048-4.078933 2.030933-6.109867 2.048-6.109867 2.048-4.078933 2.030933-12.2368 4.096-4.078933 2.030933-6.109867 2.048-6.109867 2.030933-4.078933 2.048-6.109867 2.048L430.08 75.6224l-4.078933 2.048-6.109867 2.048L413.781333 81.749333l-6.109867 2.048-4.078933 2.048L397.482667 87.876267l-6.109867 2.048-4.078933 2.048-6.109867 2.030933-6.109867 2.048-4.078933 2.030933-12.2368 4.096-4.078933 2.030933-6.109867 2.048-6.109867 2.048-4.078933 2.030933-6.109867 2.048-6.109867 2.048-6.109867 2.030933-4.078933 2.048-6.109867 2.030933-6.109867 2.048-4.078933 2.048-6.109867 2.030933-6.109867 2.048-4.078933 2.048-6.109867 2.030933-6.109867 2.048-4.078933 2.030933-6.109867 2.048-6.109867 2.048-6.109867 2.030933-4.078933 2.048-6.109867 2.048-6.109867 2.030933-4.078933 2.048-6.109867 2.048L216.064 155.3408l-4.078933 2.048-6.109867 2.030933-2.030933 2.048-4.078933 2.048L197.717333 165.546667l-2.030933 2.048-4.078933 2.048-2.030933 2.030933-2.048 4.096-2.048 2.030933-2.030933 4.078933-2.048 2.048-2.030933 4.078933 0 4.096-2.048 4.078933 0 12.270933 2.048 10.222933L181.4016 222.788267zM375.057067 175.786667l2.048-6.126933 2.030933-4.096 6.109867-2.030933 4.078933-2.048 6.109867-2.048 6.109867-2.030933 4.078933-2.048 6.109867-2.030933 6.109867-2.048 4.078933-2.048 6.109867-2.030933 6.109867-2.048 6.109867-2.048 4.078933-2.030933 12.2368-4.096 4.078933-2.030933 6.109867-2.048 6.109867-2.030933 4.078933-2.048 6.109867-2.048 6.109867-2.030933 4.078933-2.048L503.466667 122.692267l6.109867 2.048 2.030933 4.078933 2.048 2.048 0 16.349867-2.048 2.030933-2.030933 2.048-4.078933 2.048L501.418667 155.3408l-6.109867 2.048-6.109867 2.030933-4.078933 2.048-6.109867 2.048L472.8832 165.546667 468.821333 167.594667l-6.109867 2.048-6.109867 2.030933-6.109867 2.048-4.078933 2.048-6.109867 2.030933-6.109867 2.048L430.08 181.896533l-6.109867 2.048-6.109867 2.048-4.078933 2.030933-12.2368 4.096-4.078933 2.030933-10.1888 0-6.109867-2.030933-2.048-2.048-2.030933-2.048-2.048-4.078933L375.04 175.786667zM970.24 797.1328l-2.030933-4.096-4.061867-12.270933-2.030933-4.078933-2.048-6.126933-2.030933-6.126933-2.048-4.078933-4.061867-12.270933-2.030933-4.078933-2.030933-6.126933-2.048-2.048-6.109867 0-6.109867 2.048-4.078933 2.048-6.0928 2.030933-12.2368 4.096-4.061867 2.030933-6.126933 2.048-6.0928 2.030933-4.078933 2.048-6.109867 2.048-10.205867 2.030933c-31.3344 0-59.972267-9.898667-75.400533-40.874667l-2.048-6.126933-2.030933-4.078933-2.048-4.096-4.061867 0-4.061867 2.048-6.126933 2.048-6.0928 2.030933-6.126933 2.048-4.061867 2.030933-12.2368 4.096-4.061867 2.030933-6.126933 2.048-6.0928 2.048-4.061867 2.030933-6.126933 2.048-6.0928 2.048-4.078933 2.030933-6.109867 2.048-6.109867 2.030933-4.078933 2.048-6.0928 2.048-6.126933 2.030933-6.0928 2.048-4.078933 2.048-6.109867 2.030933-6.0928 2.048-4.096 2.030933-6.0928 2.048-6.109867 2.048-4.078933 2.030933-6.0928 2.048-6.126933 2.048-4.061867 2.030933-12.2368 4.096-4.061867 2.030933-6.126933 2.048-6.0928 2.048-6.109867 2.030933-4.078933 2.048-6.0928 2.030933-6.126933 2.048-4.061867 2.048-6.109867 2.030933-6.109867 2.048-4.061867 2.048-6.126933 2.030933-6.0928 2.048-4.078933 2.048-6.109867 2.030933-6.0928 2.048-4.096 2.030933-6.0928 2.048-6.109867 2.048L503.466667 809.386667l-4.078933 2.048-6.109867 2.048-6.109867 2.030933-4.078933 2.048-6.109867 2.030933L466.773333 819.592533l-6.109867-2.030933-4.078933-2.048-2.030933-2.030933-4.078933-2.048-2.030933-6.126933-2.048-6.126933-2.048-4.078933-2.030933-6.126933-2.048-6.126933-2.030933-4.078933-2.048-6.126933-2.030933-6.126933-2.048-6.126933-2.048-4.078933-2.030933-6.126933-2.048-6.126933-2.030933-4.078933-4.078933-12.270933-2.030933-4.078933-2.048-6.126933-2.030933-6.126933-2.048-4.078933-2.048-6.126933-2.030933-6.126933-2.048-4.096-2.030933-6.109867-2.048-6.126933-2.048-4.096-2.030933-6.109867-2.048-6.126933-2.030933-6.126933-2.048-4.096-2.048-6.109867-2.030933-6.126933-2.048-4.096-2.048-6.126933-2.030933-6.109867-2.048-4.096-2.030933-6.126933-2.048-6.126933-2.030933-4.078933-4.078933-12.270933-2.030933-4.078933-2.048-6.126933-2.030933-6.126933-2.048-4.078933-2.048-6.126933-2.030933-6.126933-2.048-4.078933-2.030933-6.126933-4.078933-12.270933-2.030933-4.078933-6.109867 0-6.109867 2.048-4.078933 2.030933-12.2368 4.096-4.078933 2.030933-6.109867 2.048-2.030933 2.030933 0 4.096 2.030933 6.126933 2.048 4.078933 2.048 6.126933 2.030933 6.126933 2.048 4.078933 2.030933 6.126933 2.048 6.126933 2.048 4.078933 2.030933 6.126933 2.048 6.126933 2.030933 4.078933 4.078933 12.270933 2.030933 6.126933 2.048 4.078933 2.030933 6.126933 2.048 6.126933 2.048 4.078933 2.030933 6.126933 2.048 6.126933 2.030933 4.078933 4.078933 12.270933 2.030933 4.078933 2.048 6.126933 2.030933 6.126933 2.048 6.126933 2.048 4.078933 2.030933 6.126933 2.048 6.126933 2.030933 6.126933 2.048 6.126933 2.048 4.078933 0 4.078933 2.030933 2.048 2.048 8.174933 2.030933 6.109867 2.048 4.096 2.030933 6.126933 4.078933 12.270933 2.030933 4.078933 2.048 6.126933 2.048 4.078933 2.030933 8.174933 2.048 4.078933 2.030933 6.126933 2.048 6.126933 2.048 4.078933 2.030933 6.126933 2.048 6.126933 2.030933 4.078933 4.078933 12.270933 2.030933 4.078933 2.048 6.126933 2.030933 6.126933 2.048 4.078933 2.048 6.126933 2.030933 6.126933 2.048 6.126933 2.030933 4.078933 4.078933 12.270933 2.030933 4.078933 2.048 6.126933 2.030933 6.126933 2.048 4.078933 2.030933 6.126933 2.048 6.126933 2.048 4.078933 2.030933 6.126933 2.048 6.126933 2.048 4.078933 2.030933 6.126933 2.048 6.126933 2.030933 4.078933 4.078933 12.270933 2.030933 6.126933 2.048 4.078933 2.030933 6.126933 2.048 2.048 2.048 4.078933 4.078933 0 0 4.078933 2.030933 2.048 2.048 2.048 2.048 2.030933 8.157867 4.096 4.078933 2.030933L503.466667 1024l18.3296 0 6.126933-2.048 4.061867-2.030933 12.2368-4.096 4.061867-2.030933 6.126933-2.048 6.0928-2.048 4.078933-2.030933 6.109867-2.048 6.0928-2.030933 4.096-2.048 6.0928-2.048 6.109867-2.030933 4.078933-2.048 6.0928-2.048 6.126933-2.030933 6.0928-2.048 4.078933-2.030933 12.2368-4.096 4.078933-2.030933 6.0928-2.048 6.109867-2.048 4.078933-2.030933 6.0928-2.048 6.126933-2.048 4.061867-2.030933 6.109867-2.048 6.109867-2.030933 4.061867-2.048 6.126933-2.048 6.0928-2.030933 6.126933-2.048 4.061867-2.048 6.109867-2.030933 6.109867-2.048 4.061867-2.048 6.126933-2.030933 6.0928-2.048 4.061867-2.030933 6.126933-2.048 6.0928-2.048 4.078933-2.030933 12.2368-4.096 4.078933-2.030933 6.0928-2.048 6.126933-2.030933 6.0928-2.048 4.078933-2.048 6.109867-2.030933 6.0928-2.048 4.078933-2.048 6.109867-2.030933 6.109867-2.048 4.078933-2.048 6.0928-2.030933 6.126933-2.048 4.061867-2.030933 12.2368-4.096 4.061867-2.030933 6.126933-2.048 6.0928-2.048 6.109867-2.030933 4.078933-2.048 6.0928-2.048 6.126933-2.030933 4.061867-2.048 6.109867-2.030933 6.109867-2.048 4.061867-2.048 6.126933-2.030933 6.0928-2.048 4.078933-2.048 6.109867-2.030933 6.0928-2.048 8.174933-4.078933 4.061867-2.048 2.048-2.030933 2.030933-2.048 4.078933-4.078933 2.030933-4.096 2.030933-2.030933 2.030933-2.048 2.048-6.126933 2.030933-8.174933 0-20.445867-2.030933-6.126933L970.24 797.1328zM701.866667 899.054933c-30.788267 0-55.739733-25.019733-55.739733-55.8592 0-10.376533 2.833067-20.087467 7.7312-28.416l0.426667-1.28 1.006933-1.024c0.580267-0.887467 1.194667-1.757867 1.809067-2.594133l1.245867-2.5088 4.096-4.096 0.8704-0.426667c10.001067-9.608533 23.569067-15.5136 38.536533-15.5136 30.7712 0 55.7056 25.0368 55.7056 55.876267S732.637867 899.054933 701.866667 899.054933zM423.970133 940.202667l-2.048-6.126933-2.048-4.078933-2.030933-6.126933-2.048-6.126933-2.030933-4.078933-4.078933-12.270933-2.030933-4.078933-2.048-6.126933-2.030933-6.126933-2.048-4.078933-2.048-6.126933-2.030933-6.126933-2.048-4.096L393.403733 858.453333l-4.078933-12.270933-2.030933-4.096-2.048-6.109867-2.048-6.126933-2.030933-4.096-2.048-6.126933-2.030933-6.109867-2.048-4.096-2.030933-6.126933-2.048-6.109867-2.048-4.096-2.030933-6.126933-2.048-6.126933-2.030933-4.078933L358.741333 764.416l-2.030933-4.078933-2.048-6.126933-2.030933-6.126933-2.048-4.078933-2.048-6.126933-2.030933-6.126933-2.048-6.126933-2.030933-4.078933-4.078933-12.270933-2.030933-4.078933-2.048-6.126933-2.030933-6.126933-2.048-4.078933L328.174933 682.666667l-2.030933-6.126933-2.048-4.078933-2.030933-6.126933-2.048-6.126933-2.048-4.078933-2.030933-6.126933-2.048-6.126933-2.030933-6.126933-2.048-4.078933-2.048-6.126933-2.030933-6.126933-2.048-4.078933-2.030933-6.126933-2.048-6.126933-2.048-4.078933-2.030933-6.126933-2.048-6.126933-2.030933-4.096-2.048-6.109867-2.048-6.126933-2.030933-6.126933-2.048-4.096-2.030933-6.109867-2.048-6.126933-2.048-4.096 0-6.109867 2.048-6.126933 2.048-2.048 2.030933-4.078933 2.048-2.048 4.078933-2.048 4.078933-2.030933 4.078933-2.048 6.109867-2.030933 6.109867-2.048 4.078933-2.048 6.109867-2.030933 6.109867-2.048 4.078933-2.048 6.109867-2.030933 6.109867-2.048 6.109867-2.030933 4.078933-2.048 6.109867-2.048 6.109867-2.030933 4.078933-2.048 6.109867-2.048 6.109867-2.030933 4.078933-2.048 6.109867-2.048 6.109867-2.030933 4.078933-2.048 6.109867-2.048 6.109867-2.030933 4.078933-2.048 6.109867-2.030933 6.109867-2.048 6.109867-2.048 4.078933-2.030933 12.2368-4.096 4.078933-2.030933 6.109867-2.048 6.109867-2.030933 4.078933-2.048 6.109867-2.048 6.109867-2.030933 4.078933-2.048 6.109867-2.048 2.030933-2.030933 4.078933-2.048 2.048-2.048 4.078933-2.030933 2.048-2.048 4.078933-4.078933 2.030933-2.048 2.030933-2.030933 4.061867-4.096 2.048-2.030933 2.048-4.096 2.030933-2.030933 2.030933-4.078933 2.030933-6.126933 2.030933-2.048 2.048-6.126933c9.489067-28.5184 3.6864-59.2896-10.683733-78.250667-17.902933-23.637333-49.288533-32.119467-83.080533-32.119467l-4.078933 0c-9.6256 3.208533-18.909867 6.997333-28.535467 10.222933l-4.078933 2.048-6.109867 2.030933-6.109867 2.048-4.078933 2.048-6.109867 2.030933-6.109867 2.048-4.078933 2.030933-12.2368 4.096-6.109867 2.030933-4.078933 2.048-6.109867 2.048-6.109867 2.030933-4.078933 2.048-6.109867 2.048-6.109867 2.030933-4.078933 2.048-6.109867 2.030933-6.109867 2.048-4.078933 2.048-6.109867 2.030933-12.2368 4.096-4.078933 2.030933-6.109867 2.048-6.109867 2.030933-4.078933 2.048-6.109867 2.048-6.109867 2.030933-4.078933 2.048-6.109867 2.048-6.109867 2.030933-4.078933 2.048-6.109867 2.048-6.109867 2.030933-4.078933 2.048-6.109867 2.048-6.109867 2.030933-2.030933 2.048-4.078933 2.030933-6.109867 2.048-2.048 2.048-4.078933 2.030933-4.078933 2.048-4.078933 2.048-2.030933 2.030933-4.078933 2.048-4.078933 2.030933-4.078933 2.048-2.030933 2.048-4.078933 2.030933-2.030933 2.048-2.048 2.048-4.078933 2.030933-4.078933 2.048-2.048 2.048-2.030933 2.030933-4.078933 2.048-2.048 2.030933-2.048 2.048-2.030933 2.048L124.347733 423.082667l-4.078933 4.096-2.030933 2.030933-4.078933 2.048-2.030933 2.048-2.048 2.030933-2.030933 2.048-2.048 2.030933-2.030933 2.048-2.048 2.048-2.048 2.030933-2.030933 2.048-2.048 2.048-2.048 2.030933-2.030933 2.048-2.048 2.048-2.030933 2.030933-2.048 4.078933-2.048 2.048-2.030933 2.048-2.048 2.030933-2.030933 2.048-2.048 2.048L73.386667 474.180267l-2.048 4.078933-2.048 2.048-2.030933 2.048-2.048 4.078933-2.030933 2.048-2.048 2.030933-2.048 4.096-2.030933 2.030933-2.048 2.048-2.048 4.078933L50.961067 506.88l-2.048 2.048L46.882133 513.024l-2.048 4.096-2.048 2.030933-2.030933 4.078933-2.048 4.096L36.693333 531.421867l-2.048 2.048-2.048 6.126933-2.030933 4.078933-2.048 4.078933-2.030933 2.048-2.048 6.126933-2.048 6.109867-2.030933 4.096-2.048 6.126933-2.030933 6.126933-2.048 6.109867L12.2368 590.677333l-2.048 4.096 0 4.078933-2.048 6.126933-2.030933 8.174933-2.048 12.270933L2.048 637.696 0 664.2688l0 24.541867 2.048 18.397867 0 6.109867 2.030933 12.270933 2.048 10.222933 2.030933 10.24 2.048 4.078933 2.048 10.222933 2.030933 6.126933 2.048 6.126933 2.030933 4.078933 2.048 6.126933 2.030933 6.126933 2.048 6.126933 2.048 4.078933 2.030933 2.048 2.048 6.126933 2.030933 4.078933 2.048 4.078933 2.048 2.048 2.030933 6.126933 2.048 2.030933 2.030933 4.096 2.048 2.030933 2.048 4.096 2.030933 2.030933 2.048 6.126933 2.030933 2.048 2.048 2.030933 2.048 2.048 2.030933 4.078933 2.048 4.096 4.078933 0 0 6.109867 2.048 2.048 2.030933 2.048 2.048 2.030933 2.048 2.048 2.030933 2.048 2.048 2.030933 2.030933 4.096 2.048 2.030933 2.030933 2.048 2.048 2.030933 2.048 2.048 2.030933 2.048 2.048 2.030933 2.030933 2.048 2.048 2.048 2.048 2.030933 2.030933 2.048 4.078933 2.048 2.030933 2.030933 2.048 2.048 2.030933 2.030933 2.048 2.048 2.030933 2.048 2.048 2.030933 2.048 2.048 4.078933 2.048 2.048 2.030933 4.078933 2.048 2.030933 2.048 2.048 2.030933 4.078933 2.048 4.078933 2.030933 2.048 2.048 4.078933 2.048 4.078933 2.030933 2.048 2.048 4.078933 2.048 2.048 2.030933 4.078933 2.048 6.109867 2.030933 2.030933 2.048 6.109867 2.048 2.048 2.030933 6.109867 2.048 4.078933 2.048 4.078933 2.030933 6.109867 2.048 6.109867 2.048 6.109867 2.030933 6.109867 2.048 6.109867 2.030933 8.157867 2.048 8.157867 2.048 6.109867 2.030933 4.078933 0 10.1888 2.048 16.315733 2.048 8.157867 0 18.346667 2.030933 2.048 0 30.583467-2.030933 18.346667-2.048 4.078933 0 8.157867-2.048 10.1888-2.030933 4.078933 0 4.078933-2.048 10.1888-2.048 6.109867-2.030933 4.078933 0 4.078933-2.048 6.109867-2.030933 6.109867-2.048 4.078933-2.048 2.048-2.030933 0-6.126933-2.048-6.126933L423.970133 940.202667z" p-id="8394" data-spm-anchor-id="a313x.7781069.0.i28" class="" fill="#1296db"></path></svg>