<?xml version="1.0" standalone="no"?><!DOCTYPE svg PUBLIC "-//W3C//DTD SVG 1.1//EN" "http://www.w3.org/Graphics/SVG/1.1/DTD/svg11.dtd"><svg t="1533301596477" class="icon" style="" viewBox="0 0 1024 1024" version="1.1" xmlns="http://www.w3.org/2000/svg" p-id="3507" xmlns:xlink="http://www.w3.org/1999/xlink" width="10" height="10"><defs><style type="text/css"></style></defs><path d="M440.293215 474.641496c-8.020094 0-15.958277-3.40749-21.488281-10.005407L318.728334 345.412834c-9.963428-11.866831-8.430672-29.53602 3.44947-39.499448 11.907786-9.963428 29.563665-8.362071 39.471803 3.448445l100.0766 119.224279c9.963428 11.866831 8.430672 29.53602-3.44947 39.499448a27.87835 27.87835 0 0 1-17.983522 6.555938z" fill="#ffffff" p-id="3508"></path><path d="M461.671941 474.641496a27.886541 27.886541 0 0 1-17.984546-6.555938c-11.880141-9.963428-13.412898-27.633641-3.44947-39.499448l100.0766-119.224279c9.936807-11.811541 27.592686-13.412898 39.472827-3.448445 11.880141 9.963428 13.412898 27.633641 3.449469 39.499448l-100.076599 119.224279c-5.530005 6.596893-13.468188 10.004384-21.488281 10.004383z" fill="#ffffff" p-id="3509"></path><path d="M575.900683 492.037308h-0.027645l-253.696258-0.191467c-15.465788-0.013311-28.003264-12.564097-28.003263-28.057529 0-15.465788 12.564097-28.003264 28.029884-28.003264h0.027645l253.696258 0.191467c15.465788 0.013311 28.003264 12.564097 28.003264 28.057529 0 15.466812-12.564097 28.003264-28.029885 28.003264zM575.900683 590.690707h-0.027645l-253.696258-0.191467c-15.465788-0.013311-28.003264-12.564097-28.003263-28.057529 0-15.465788 12.564097-28.003264 28.029884-28.003264h0.027645l253.696258 0.191466c15.465788 0.013311 28.003264 12.564097 28.003264 28.05753 0 15.466812-12.564097 28.003264-28.029885 28.003264z" fill="#ffffff" p-id="3510"></path><path d="M448.942998 694.777865h-0.027645c-15.465788-0.013311-28.029885-12.578431-28.003263-28.05753l0.191466-209.186939c0.027645-15.465788 12.564097-28.003264 28.029885-28.003263h0.027645c15.465788 0.013311 28.029885 12.578431 28.003264 28.057529l-0.191467 209.186939c-0.026621 15.466812-12.564097 28.003264-28.029885 28.003264zM765.734142 959.108196a28.018622 28.018622 0 0 1-17.026189-5.748092l-121.947814-93.233974c-12.290719-9.402339-14.644632-26.990641-5.255604-39.294671 9.443294-12.277409 27.017262-14.644632 39.307982-5.242293l101.144512 77.329963 146.694098-166.7858c10.210184-11.633385 27.975619-12.728942 39.554738-2.532068 11.633385 10.223495 12.755563 27.934663 2.545379 39.568048L786.7842 949.596301a28.040124 28.040124 0 0 1-21.050058 9.511895z" fill="#ffffff" p-id="3511"></path><path d="M592.406738 959.62833h-464.977042c-35.024045 0-63.506487-28.509063-63.506487-63.519798V128.670645c0-35.010735 28.481418-63.506487 63.506487-63.506487h643.232406c35.010735 0 63.506487 28.495752 63.506487 63.506487v609.453405h-56.060793V128.670645c0-4.10578-3.339914-7.445694-7.445694-7.445694H127.429696c-4.10578 0-7.445694 3.339914-7.445694 7.445694v767.437887c0 4.10578 3.339914 7.445694 7.445694 7.445694h464.977042v56.074104z" fill="#ffffff" p-id="3512"></path></svg>