<?xml version="1.0" standalone="no"?><!DOCTYPE svg PUBLIC "-//W3C//DTD SVG 1.1//EN" "http://www.w3.org/Graphics/SVG/1.1/DTD/svg11.dtd"><svg t="1533304118085" class="icon" style="" viewBox="0 0 1024 1024" version="1.1" xmlns="http://www.w3.org/2000/svg" p-id="6549" xmlns:xlink="http://www.w3.org/1999/xlink" width="10" height="10"><defs><style type="text/css"></style></defs><path d="M514.707668 313.464271c-109.646236 0-198.535729 88.889493-198.535729 198.535729 0 109.651352 88.889493 198.535729 198.535729 198.535729s198.535729-88.884376 198.535729-198.535729C713.243397 402.353764 624.353904 313.464271 514.707668 313.464271zM514.707668 660.901285c-82.233909 0-148.901285-66.663282-148.901285-148.901285 0-82.233909 66.668399-148.901285 148.901285-148.901285 82.238003 0 148.901285 66.668399 148.901285 148.901285C663.608953 594.238003 596.945671 660.901285 514.707668 660.901285zM891.222951 385.593032c-5.828752-17.368576-12.83533-34.196847-20.906146-50.399877 11.222599-48.4075-2.016937-101.334943-39.739073-139.058103-37.72316-37.72316-90.647533-50.963719-139.051963-39.745213-16.208147-8.074909-33.041534-15.083533-50.41625-20.913309-26.297946-42.138726-73.070202-70.181409-126.401852-70.181409-53.327556 0-100.100836 28.042683-126.399805 70.180386-17.375739 5.830799-34.209126 12.839423-50.417273 20.914332-48.40443-11.219529-101.329826 2.022053-139.051963 39.745213-37.722136 37.722136-50.961672 90.650603-39.739073 139.058103-8.071839 16.204054-15.078417 33.032324-20.907169 50.401923-42.141796 26.297946-70.188572 73.074296-70.188572 126.405945 0 53.334719 28.046776 100.110045 70.189595 126.406968 5.828752 17.368576 12.83533 34.196847 20.907169 50.399877-11.222599 48.4075 2.016937 101.33699 39.739073 139.063219 37.725206 37.725206 90.65265 50.965765 139.059126 39.743166 16.2061 8.072863 33.036417 15.080463 50.408063 20.910239 26.298969 42.138726 73.073272 70.181409 126.402875 70.181409 53.332672 0 100.105952-28.042683 126.403898-70.182432 17.371646-5.829775 34.20094-12.836353 50.40704-20.909216 48.406476 11.221576 101.33392-2.018983 139.059126-39.743166 37.722136-37.725206 50.961672-90.654696 39.739073-139.062196 8.071839-16.20303 15.077394-33.030277 20.906146-50.398854 42.143842-26.296923 70.189595-73.073272 70.189595-126.409015C961.412546 458.667328 933.366793 411.890978 891.222951 385.593032zM849.804632 604.010577c-7.731078 28.220738-18.919908 55.009871-33.102932 79.875189 15.275915 36.122709 8.216125 79.4454-21.225417 108.887966-29.438473 29.438473-72.761164 36.496216-108.885919 21.222347-24.864294 14.182001-51.652404 25.369807-79.872119 33.100886-14.741749 36.341696-50.377364 61.97347-92.010577 61.97347s-77.268828-25.631774-92.010577-61.97347c-28.219715-7.731078-55.007825-18.918885-79.872119-33.100886-36.124755 15.273868-79.44847 8.216125-108.891036-21.222347-29.438473-29.442566-36.497239-72.76628-21.221324-108.890013-14.182001-24.864294-25.369807-51.653427-33.100886-79.873142-36.341696-14.741749-61.974493-50.377364-61.974493-92.010577s25.631774-77.268828 61.97347-92.010577c7.731078-28.219715 18.918885-55.007825 33.100886-79.872119-15.273868-36.124755-8.216125-79.44847 21.222347-108.891036 29.442566-29.438473 72.76628-36.496216 108.891036-21.222347 24.864294-14.182001 51.653427-25.369807 79.873142-33.100886 14.742772-36.33965 50.377364-61.97347 92.010577-61.97347 41.632189 0 77.267804 25.63382 92.010577 61.97347 28.219715 7.731078 55.008848 18.918885 79.873142 33.100886 36.124755-15.273868 79.447447-8.216125 108.885919 21.222347 29.441543 29.441543 36.501332 72.764234 21.22644 108.887966 14.183024 24.865317 25.370831 51.65445 33.101909 79.874165 36.341696 14.741749 61.974493 50.377364 61.974493 92.010577S886.146329 589.268828 849.804632 604.010577z" p-id="6550" fill="#1296db"></path></svg>