<?xml version="1.0" standalone="no"?><!DOCTYPE svg PUBLIC "-//W3C//DTD SVG 1.1//EN" "http://www.w3.org/Graphics/SVG/1.1/DTD/svg11.dtd"><svg t="1533370091635" class="icon" style="" viewBox="0 0 1024 1024" version="1.1" xmlns="http://www.w3.org/2000/svg" p-id="10005" xmlns:xlink="http://www.w3.org/1999/xlink" width="10" height="10"><defs><style type="text/css"></style></defs><path d="M356.064641 956.721604l54.164811-31.358575c-128.285078-94.075724-210.957684-245.167038-210.957684-413.363029s82.672606-319.287305 210.957684-413.363029L356.064641 67.278396c-131.135857 105.478842-213.808463 265.122494-213.808463 444.721604s82.672606 339.242762 213.808463 444.721604zM635.441033 774.271715c-74.120267-62.717149-122.583519-156.792873-122.583519-262.271715s48.463252-199.554566 122.583519-262.271715l-51.314031-31.358575c-79.821826 74.120267-128.285078 176.74833-128.285078 293.63029s48.463252 219.510022 128.285078 293.63029l51.314031-31.358575zM874.906512 617.478842c-28.507795-25.657016-48.463252-62.717149-48.463251-105.478842s19.955457-79.821826 48.463251-105.478842l-51.314031-31.358574c-34.209354 37.060134-54.164811 85.523385-54.164811 136.837416s19.955457 99.777283 54.164811 136.837416l51.314031-31.358574z" fill="#0e932e" p-id="10006"></path></svg>